<svg id="icon_user" xmlns="http://www.w3.org/2000/svg" xmlns:xlink="http://www.w3.org/1999/xlink" width="20" height="20" viewBox="0 0 20 20">
  <defs>
    <clipPath id="clip-path">
      <rect id="사각형_321" data-name="사각형 321" width="16" height="16" transform="translate(2 2)" fill="#bbb"/>
    </clipPath>
  </defs>
  <rect id="사각형_320" data-name="사각형 320" width="20" height="20" fill="#bbb" opacity="0"/>
  <g id="마스크_그룹_32" data-name="마스크 그룹 32" clip-path="url(#clip-path)">
    <path id="account_circle_FILL0_wght300_GRAD0_opsz20" d="M5.361-6.095A9.1,9.1,0,0,1,7.836-7.3a9.543,9.543,0,0,1,5.427,0,9.1,9.1,0,0,1,2.475,1.2,6.237,6.237,0,0,0,1.244-2.042,6.865,6.865,0,0,0,.424-2.413A6.608,6.608,0,0,0,15.4-15.4a6.618,6.618,0,0,0-4.857-2,6.6,6.6,0,0,0-4.852,2,6.616,6.616,0,0,0-2,4.854,6.865,6.865,0,0,0,.424,2.413A6.237,6.237,0,0,0,5.361-6.095ZM10.55-9.187a2.84,2.84,0,0,1-2.086-.859,2.839,2.839,0,0,1-.86-2.085,2.84,2.84,0,0,1,.859-2.086,2.839,2.839,0,0,1,2.085-.86,2.84,2.84,0,0,1,2.086.859,2.839,2.839,0,0,1,.86,2.085,2.84,2.84,0,0,1-.859,2.086,2.839,2.839,0,0,1-2.085.86Zm.006,6.637A7.865,7.865,0,0,1,7.44-3.171,8.017,8.017,0,0,1,4.887-4.887,8.019,8.019,0,0,1,3.171-7.439a7.873,7.873,0,0,1-.621-3.121,7.8,7.8,0,0,1,.621-3.111,8.05,8.05,0,0,1,1.716-2.542,8.019,8.019,0,0,1,2.552-1.716,7.873,7.873,0,0,1,3.121-.621,7.8,7.8,0,0,1,3.111.621,8.05,8.05,0,0,1,2.542,1.716,8.035,8.035,0,0,1,1.716,2.547,7.821,7.821,0,0,1,.621,3.11,7.865,7.865,0,0,1-.621,3.116,8.017,8.017,0,0,1-1.716,2.553,8.035,8.035,0,0,1-2.547,1.716,7.821,7.821,0,0,1-3.11.621Zm-.006-1.143a6.74,6.74,0,0,0,2.3-.4,6.91,6.91,0,0,0,2.05-1.159,7.982,7.982,0,0,0-2.047-.956,7.805,7.805,0,0,0-2.3-.337,8.307,8.307,0,0,0-2.314.322A6.678,6.678,0,0,0,6.2-5.256,6.91,6.91,0,0,0,8.254-4.1,6.74,6.74,0,0,0,10.549-3.692Zm0-6.637a1.736,1.736,0,0,0,1.273-.529,1.736,1.736,0,0,0,.529-1.273,1.736,1.736,0,0,0-.529-1.273,1.736,1.736,0,0,0-1.273-.529,1.736,1.736,0,0,0-1.273.529,1.736,1.736,0,0,0-.529,1.273,1.736,1.736,0,0,0,.529,1.273A1.736,1.736,0,0,0,10.549-10.33ZM10.549-12.132ZM10.549-5.231Z" transform="translate(-0.549 20.549)" fill="#bbb"/>
  </g>
</svg>
