<svg id="check_default" xmlns="http://www.w3.org/2000/svg" width="24" height="24" viewBox="0 0 24 24">
  <g id="사각형_22" data-name="사각형 22" fill="#4796ec" stroke="#707070" stroke-width="1" opacity="0">
    <rect width="24" height="24" stroke="none"/>
    <rect x="0.5" y="0.5" width="23" height="23" fill="none"/>
  </g>
  <path id="check_box_outline_blank_FILL0_wght300_GRAD0_opsz24" d="M142.128-800a2.053,2.053,0,0,1-1.509-.618,2.053,2.053,0,0,1-.618-1.509v-15.747a2.053,2.053,0,0,1,.618-1.509,2.053,2.053,0,0,1,1.509-.618h15.747a2.053,2.053,0,0,1,1.509.618,2.053,2.053,0,0,1,.618,1.509v15.747a2.053,2.053,0,0,1-.618,1.509,2.053,2.053,0,0,1-1.509.618Zm0-1.765h15.747a.346.346,0,0,0,.249-.113.346.346,0,0,0,.113-.249v-15.747a.346.346,0,0,0-.113-.249.346.346,0,0,0-.249-.113H142.128a.346.346,0,0,0-.249.113.346.346,0,0,0-.113.249v15.747a.346.346,0,0,0,.113.249A.346.346,0,0,0,142.128-801.764Z" transform="translate(-138.001 821.999)" fill="#bbb"/>
</svg>
